# xmcd
#
# Track frame offsets: 
#        150
#        21229
#        40554
#        52479
#        69819
#        86151
#        107914
#        124405
#        139006
#        156244
#
# Disc length: 2331 seconds
#
# Revision: 0
# Processed by: cddbd v1.5.2PL0 Copyright (c) Steve Scherf et al.
# Submitted via: ExactAudioCopy v1.2
#
DISCID=8c09190a
DTITLE=Jimmie Bratcher - This Is Blues Country
DYEAR=2017
DGENRE=Blues
TTITLE0=Honky Tonk Blues
TTITLE1=You Are My Sunshine
TTITLE2=Singing the Blues
TTITLE3=I Don't Hurt Anymore
TTITLE4=Under Your Spell Again
TTITLE5=Am I That Easy to Forget
TTITLE6=Don't Worry About Me
TTITLE7=My Sweet Love Ain’t Around
TTITLE8=Today I Started Loving You Again
TTITLE9=I Can’t Stop Loving You
EXTD=
EXTT0=
EXTT1=
EXTT2=
EXTT3=
EXTT4=
EXTT5=
EXTT6=
EXTT7=
EXTT8=
EXTT9=
PLAYORDER=
